<?xml version="1.0" encoding="UTF-8"?>
<svg width="74px" height="74px" viewBox="0 0 74 74" version="1.1" xmlns="http://www.w3.org/2000/svg" xmlns:xlink="http://www.w3.org/1999/xlink">
    <!-- Generator: Sketch Beta 45 (43471) - http://www.bohemiancoding.com/sketch -->
    <title>notification</title>
    <desc>Created with Sketch Beta.</desc>
    <defs></defs>
    <g id="Page-1" stroke="none" stroke-width="1" fill="none" fill-rule="evenodd">
        <g id="Desktop" transform="translate(-535.000000, -1148.000000)">
            <g id="notification" transform="translate(535.680124, 1149.000000)">
                <path d="M17.2906423,36.3653008 C16.8976419,35.9457703 16.2311511,35.9168804 15.8021001,36.3016272 C15.6803184,36.4108095 15.5542896,36.520958 15.4243101,36.6327491 C14.9872588,37.0084135 14.9440969,37.6595457 15.3280107,38.0871925 C15.5365113,38.3191807 15.8273849,38.4377353 16.1200364,38.4377353 C16.366958,38.4377353 16.6148673,38.3532881 16.8149725,38.1813984 C16.9563105,38.0599452 17.0932038,37.9400379 17.225455,37.8213867 C17.654506,37.4369298 17.6837415,36.784928 17.2906423,36.3653008 Z" id="Shape" fill="#031D44" fill-rule="nonzero"></path>
                <path d="M17.9965418,35.6449876 C18.1798564,35.7698225 18.3895422,35.8298245 18.5973514,35.8298245 C18.930498,35.8298245 19.2583112,35.6755199 19.4630585,35.3877811 C21.1977322,32.9492478 21.4587777,30.5393145 21.8043692,26.1386884 C21.8490126,25.5711338 21.4149244,25.0756587 20.8345599,25.0320825 C20.2527138,24.9885062 19.7480061,25.4133509 19.7034614,25.9808089 C19.37792,30.1260643 19.1583573,32.2075812 17.7337184,34.2104482 C17.4009669,34.6775165 17.5188966,35.3199528 17.9965418,35.6449876 Z" id="Shape" fill="#031D44" fill-rule="nonzero"></path>
                <path d="M50.1948222,24.283749 C50.3004058,24.7680159 50.7375558,25.0998141 51.2241889,25.0998141 C51.2967839,25.0998141 51.3707616,25.0923743 51.4448381,25.0769148 C52.0137454,24.9582636 52.3770165,24.4108062 52.2555311,23.8541698 C52.2121716,23.654743 52.1641701,23.4539636 52.1131067,23.2573388 C51.9696946,22.7057267 51.3961451,22.3720927 50.8324725,22.5123871 C50.2686023,22.6526815 49.927653,23.2135693 50.0710651,23.7651814 C50.1154122,23.9360082 50.1570925,24.1105066 50.1948222,24.283749 Z" id="Shape" fill="#031D44" fill-rule="nonzero"></path>
                <path d="M56.8269388,36.6146809 C53.7429868,34.1055173 53.0655327,31.6609934 52.6358891,26.7817045 C52.5858134,26.2145363 52.074982,25.7941362 51.4958027,25.8434132 C50.9161295,25.8923036 50.4866835,26.3916435 50.5366604,26.9586185 C51.0006755,32.2274852 51.8584811,35.2534772 55.4796358,38.1994667 C55.6765805,38.3596651 55.9153043,38.4377353 56.1527441,38.4377353 C56.4549761,38.4377353 56.7550352,38.3111611 56.9634371,38.066129 C57.3353998,37.6284336 57.274262,36.9786541 56.8269388,36.6146809 Z" id="Shape" fill="#031D44" fill-rule="nonzero"></path>
                <path d="M54.4979743,40.3622422 C54.4839491,40.3348017 54.4688375,40.3082308 54.4522444,40.2822396 C54.1975201,39.8376841 53.8727688,39.4982528 53.48204,39.2777625 C50.6387872,37.6725896 48.9181387,33.3050082 48.3677011,26.2964713 C47.9594903,21.0982349 44.1706265,16.83771 39.2408861,15.5534171 C39.6100833,14.9917563 39.8251026,14.3243917 39.8251026,13.608523 C39.8252014,11.6187965 38.1703328,10 36.1362915,10 C34.1024476,10 32.4476778,11.6187965 32.4476778,13.6086196 C32.4476778,14.3244883 32.6628947,14.9917563 33.0318943,15.5535137 C28.102154,16.83771 24.3132902,21.0983315 23.9048818,26.296568 C23.3544442,33.3051048 21.6337957,37.6725896 18.7907404,39.2778592 C17.9673063,39.7427052 17.4321778,40.7297904 17.2435297,42.1328311 C17.1211553,43.0435853 17.0834257,44.9558214 17.8180668,45.6739123 C18.0156041,45.8670587 18.2835634,45.9755646 18.5626836,45.9755646 L29.8048265,45.9755646 C30.3089417,48.9496709 32.9555462,51.2252037 36.1365878,51.2252037 C39.3175306,51.2252037 41.9640363,48.9496709 42.468349,45.9755646 L53.7102944,45.9755646 C53.9895133,45.9755646 54.2573739,45.8670587 54.4549111,45.6739123 C55.1897498,44.9553383 55.1518227,43.0425225 55.029152,42.1314784 C54.9351243,41.4346442 54.7556617,40.8407119 54.4979743,40.3622422 Z M36.1362915,12.0612264 C37.0085173,12.0612264 37.7180712,12.7553552 37.7180712,13.6086196 C37.7180712,14.4617874 37.0086161,15.1559163 36.1362915,15.1559163 C35.2642631,15.1559163 34.5547092,14.4617874 34.5547092,13.6086196 C34.554808,12.7553552 35.2643619,12.0612264 36.1362915,12.0612264 Z M36.1362915,49.1638808 C34.1216087,49.1638808 32.4256524,47.8052859 31.9543285,45.9755646 L40.3181557,45.9755646 C39.8469305,47.8052859 38.1509742,49.1638808 36.1362915,49.1638808 Z M52.9502697,43.9143383 L19.322412,43.9143383 C19.2787563,43.5774191 19.2557432,43.0889975 19.3157945,42.5389313 C19.4166373,41.6179352 19.6867695,41.1518331 19.8438117,41.0630379 C23.374593,39.0696398 25.3902634,34.2911272 26.0056908,26.4544475 C26.4124201,21.2746657 30.8624411,17.2171426 36.1361927,17.2171426 C41.410043,17.2171426 45.8599653,21.2747623 46.2666946,26.4544475 C46.562803,30.2245216 47.1837614,33.2847177 48.1408295,35.669626 L44.180207,35.669626 C43.5985585,35.669626 43.126642,36.1309937 43.126642,36.7002875 C43.126642,37.2695814 43.5985585,37.730949 44.180207,37.730949 L49.1505413,37.730949 C49.6268037,38.5279797 50.1600556,39.214089 50.750297,39.7921754 L40.2448693,39.7921754 C39.6632208,39.7921754 39.1913043,40.253543 39.1913043,40.8228369 C39.1913043,41.3920341 39.6632208,41.8534984 40.2448693,41.8534984 L52.8333276,41.8534984 C52.8838972,42.0455819 52.9274541,42.2726424 52.9565909,42.5388347 C53.0169385,43.0889008 52.9938267,43.5773225 52.9502697,43.9143383 Z" id="Shape" fill="#031D44" fill-rule="nonzero"></path>
                <path d="M46.6714485,57.4089795 L25.6008381,57.408593 C25.0191896,57.408593 24.5472731,57.8699606 24.5472731,58.4392545 C24.5472731,59.0083551 25.0188933,59.469916 25.6008381,59.469916 L46.6714485,59.4702058 C47.2532945,59.4702058 47.7250135,59.0088382 47.7250135,58.4395444 C47.7250135,57.8702505 47.2533933,57.4089795 46.6714485,57.4089795 Z" id="Shape" fill="#031D44" fill-rule="nonzero"></path>
                <path d="M36.4523511,39.7921754 L35.8202318,39.7921754 C35.2383857,39.7921754 34.7666667,40.253543 34.7666667,40.8228369 C34.7666667,41.3920341 35.238287,41.8534984 35.8202318,41.8534984 L36.4523511,41.8534984 C37.0339996,41.8534984 37.5059162,41.3921307 37.5059162,40.8228369 C37.5059162,40.253543 37.0340984,39.7921754 36.4523511,39.7921754 Z" id="Shape" fill="#031D44" fill-rule="nonzero"></path>
                <circle id="Oval" stroke="#031D44" stroke-width="2" cx="36.3198763" cy="36" r="36"></circle>
            </g>
        </g>
    </g>
</svg>