<?xml version="1.0" encoding="UTF-8"?>
<svg width="74px" height="74px" viewBox="0 0 74 74" version="1.1" xmlns="http://www.w3.org/2000/svg" xmlns:xlink="http://www.w3.org/1999/xlink">
    <!-- Generator: Sketch Beta 45 (43471) - http://www.bohemiancoding.com/sketch -->
    <title>crystal-ball</title>
    <desc>Created with Sketch Beta.</desc>
    <defs></defs>
    <g id="Page-1" stroke="none" stroke-width="1" fill="none" fill-rule="evenodd">
        <g id="Desktop" transform="translate(-88.000000, -1148.000000)">
            <g id="crystal-ball" transform="translate(88.092828, 1149.000000)">
                <path d="M23.7862483,35.6630362 C23.4560011,35.6630362 23.1881911,35.3952263 23.1881911,35.0649791 C23.1881911,27.3102113 29.4973351,21.0011869 37.2522225,21.0011869 C37.5824697,21.0011869 37.8502796,21.2689969 37.8502796,21.5992441 C37.8502796,21.9294912 37.5824697,22.1973012 37.2522225,22.1973012 C30.1568726,22.1973012 24.3843054,27.9697488 24.3843054,35.0649791 C24.3843054,35.3952263 24.1164954,35.6630362 23.7862483,35.6630362 Z" id="Shape" fill="#031D44" fill-rule="nonzero"></path>
                <path d="M39.1432792,12.294073 C38.813032,12.294073 38.545222,12.026263 38.545222,11.6960158 C38.545222,11.1855143 37.1048612,9.74515344 36.59424,9.74515344 C36.2639929,9.74515344 35.9961829,9.47734345 35.9961829,9.1470963 C35.9961829,8.81684914 36.2639929,8.54903916 36.59424,8.54903916 C37.1047416,8.54903916 38.545222,7.10855872 38.545222,6.59805714 C38.545222,6.26780999 38.813032,6 39.1432792,6 C39.4735263,6 39.7413363,6.26780999 39.7413363,6.59805714 C39.7413363,7.10855872 41.1818168,8.54903916 41.6923183,8.54903916 C42.0225655,8.54903916 42.2903755,8.81684914 42.2903755,9.1470963 C42.2903755,9.47734345 42.0225655,9.74515344 41.6923183,9.74515344 C41.1818168,9.74515344 39.7413363,11.1855143 39.7413363,11.6960158 C39.7413363,12.0263826 39.4735263,12.294073 39.1432792,12.294073 Z M37.9927369,9.1470963 C38.4179555,9.46299008 38.827505,9.87242 39.1433988,10.2977582 C39.4592926,9.87253961 39.8687225,9.46299008 40.2940607,9.1470963 C39.8688421,8.83120252 39.4592926,8.42165298 39.1433988,7.99643436 C38.827505,8.4217726 38.4179555,8.83120252 37.9927369,9.1470963 Z" id="Shape" fill="#031D44" fill-rule="nonzero"></path>
                <path d="M18.2709653,26.8207614 C17.9407181,26.8207614 17.6729081,26.5529514 17.6729081,26.2227042 C17.6729081,25.3569567 15.5504033,23.2345715 14.6847754,23.2345715 C14.3545283,23.2345715 14.0867183,22.9667615 14.0867183,22.6365144 C14.0867183,22.3062672 14.3545283,22.0384572 14.6847754,22.0384572 C15.5505229,22.0384572 17.6729081,19.9159524 17.6729081,19.0503245 C17.6729081,18.7200774 17.9407181,18.4522674 18.2709653,18.4522674 C18.6012124,18.4522674 18.8690224,18.7200774 18.8690224,19.0503245 C18.8690224,19.9160721 20.9914076,22.0384572 21.8571551,22.0384572 C22.1874023,22.0384572 22.4552123,22.3062672 22.4552123,22.6365144 C22.4552123,22.9667615 22.1874023,23.2345715 21.8571551,23.2345715 C20.9914076,23.2345715 18.8690224,25.3569567 18.8690224,26.2227042 C18.8690224,26.5529514 18.6012124,26.8207614 18.2709653,26.8207614 Z M16.2349395,22.6365144 C16.9979408,23.1440257 17.763454,23.9095388 18.2709653,24.6724205 C18.7784766,23.9095388 19.5439897,23.1439061 20.3068714,22.6365144 C19.5439897,22.1290031 18.778357,21.36349 18.2709653,20.6004886 C17.763454,21.36349 16.9979408,22.1290031 16.2349395,22.6365144 Z" id="Shape" fill="#031D44" fill-rule="nonzero"></path>
                <path d="M57.7191733,31.2650436 C57.3889261,31.2650436 57.1211161,30.9972336 57.1211161,30.6669865 C57.1211161,30.4708237 56.8403881,29.9140325 56.2162557,29.2897805 C55.5921232,28.6656481 55.0352124,28.38492 54.8391693,28.38492 C54.5089221,28.38492 54.2411122,28.11711 54.2411122,27.7868629 C54.2411122,27.4566157 54.5089221,27.1888057 54.8391693,27.1888057 C55.035332,27.1888057 55.5921232,26.9080777 56.2163753,26.2840649 C56.8405077,25.6599325 57.1212358,25.1030217 57.1212358,24.9069785 C57.1212358,24.5767314 57.3890457,24.3089214 57.7192929,24.3089214 C58.04954,24.3089214 58.31735,24.5767314 58.31735,24.9069785 C58.31735,25.1031413 58.5980781,25.6599325 59.2222105,26.2840649 C59.8463429,26.9081973 60.4032537,27.1888057 60.5992969,27.1888057 C60.929544,27.1888057 61.197354,27.4566157 61.197354,27.7868629 C61.197354,28.11711 60.929544,28.38492 60.5992969,28.38492 C60.4032537,28.38492 59.8463429,28.6656481 59.2222105,29.2897805 C58.5980781,29.9139129 58.31735,30.4708237 58.31735,30.6669865 C58.3172304,30.9972336 58.0494204,31.2650436 57.7191733,31.2650436 Z M56.2981895,27.7868629 C56.8274701,28.1639977 57.3421581,28.6785661 57.7191733,29.2078467 C58.0961885,28.6785661 58.6108765,28.1638781 59.1401571,27.7868629 C58.6108765,27.4098477 58.0961885,26.8951597 57.7191733,26.3658791 C57.3420384,26.8952793 56.8274701,27.4098477 56.2981895,27.7868629 Z" id="Shape" fill="#031D44" fill-rule="nonzero"></path>
                <path d="M46.5029704,18.8230628 C46.1727232,18.8230628 45.9049133,18.5552528 45.9049133,18.2250057 C45.9049133,17.1321161 43.3436737,14.5707569 42.2509037,14.5707569 C41.9206566,14.5707569 41.6528466,14.3029469 41.6528466,13.9726998 C41.6528466,13.6424526 41.9206566,13.3746426 42.2509037,13.3746426 C43.3436737,13.3746426 45.9049133,10.8132835 45.9049133,9.72039388 C45.9049133,9.39014672 46.1727232,9.12233673 46.5029704,9.12233673 C46.8332176,9.12233673 47.1010275,9.39014672 47.1010275,9.72039388 C47.1010275,10.8132835 49.6626259,13.3746426 50.7555155,13.3746426 C51.0857627,13.3746426 51.3535727,13.6424526 51.3535727,13.9726998 C51.3535727,14.3029469 51.0857627,14.5707569 50.7555155,14.5707569 C49.6626259,14.5707569 47.1010275,17.1321161 47.1010275,18.2250057 C47.1010275,18.5552528 46.8333372,18.8230628 46.5029704,18.8230628 Z M43.9005845,13.9726998 C44.8819963,14.5884594 45.8873304,15.5937935 46.50309,16.5753249 C47.1188496,15.5937935 48.1243033,14.5884594 49.1058347,13.9726998 C48.1243033,13.3569401 47.1188496,12.3516061 46.50309,11.3700747 C45.8873304,12.3516061 44.8819963,13.3569401 43.9005845,13.9726998 Z" id="Shape" fill="#031D44" fill-rule="nonzero"></path>
                <path d="M49.7611857,54.2115393 L49.422805,54.2115393 L47.7334132,48.4766498 C51.7164737,45.3569445 54.2807035,40.5049069 54.2807035,35.0649791 C54.2807035,25.6753623 46.6417197,18.0363785 37.2519833,18.0363785 C27.8623665,18.0363785 20.223263,25.6753623 20.223263,35.0649791 C20.223263,40.5049069 22.7874928,45.3569445 26.7705534,48.4766498 L25.0812812,54.2115393 L24.7429005,54.2115393 C23.7108931,54.2115393 22.8713404,55.0512115 22.8713404,56.0830993 L22.8713404,56.4358334 C22.8713404,57.4678409 23.7110127,58.3073935 24.7429005,58.3073935 L49.7609465,58.3073935 C50.7929539,58.3073935 51.6326261,57.4678409 51.6326261,56.4358334 L51.6326261,56.0830993 C51.6328653,55.0512115 50.7931931,54.2115393 49.7611857,54.2115393 Z M21.4196165,35.0649791 C21.4196165,26.3348998 28.5220236,19.2324927 37.2522225,19.2324927 C45.9824215,19.2324927 53.0848285,26.3348998 53.0848285,35.0649791 C53.0848285,43.7950584 45.9824215,50.8975851 37.2522225,50.8975851 C28.5220236,50.8975851 21.4196165,43.7950584 21.4196165,35.0649791 Z M27.7983744,49.2213505 C30.5048222,51.0346598 33.7569373,52.0936994 37.2522225,52.0936994 C40.7475077,52.0936994 43.9996228,51.0346598 46.7060706,49.2213505 L48.1760951,54.2115393 L26.3284696,54.2115393 L27.7983744,49.2213505 Z M49.7613053,57.1113988 L24.7431397,57.1113988 C24.3706697,57.1113988 24.0676939,56.808423 24.0676939,56.4359531 L24.0676939,56.083219 C24.0676939,55.710749 24.3706697,55.4077732 24.7431397,55.4077732 L49.7611857,55.4077732 C50.1336557,55.4077732 50.4366315,55.710749 50.4366315,56.083219 L50.4366315,56.4359531 C50.4367511,56.808423 50.1337753,57.1113988 49.7613053,57.1113988 Z" id="Shape" fill="#031D44" fill-rule="nonzero"></path>
                <circle id="Oval" stroke="#031D44" stroke-width="2" cx="36.9071722" cy="36" r="36"></circle>
            </g>
        </g>
    </g>
</svg>