<?xml version="1.0" encoding="UTF-8"?>
<svg width="74px" height="74px" viewBox="0 0 74 74" version="1.1" xmlns="http://www.w3.org/2000/svg" xmlns:xlink="http://www.w3.org/1999/xlink">
    <!-- Generator: Sketch Beta 45 (43471) - http://www.bohemiancoding.com/sketch -->
    <title>presentation (1)</title>
    <desc>Created with Sketch Beta.</desc>
    <defs></defs>
    <g id="Page-1" stroke="none" stroke-width="1" fill="none" fill-rule="evenodd">
        <g id="Desktop" transform="translate(-535.000000, -933.000000)">
            <g id="presentation-(1)" transform="translate(536.000000, 934.000000)">
                <path d="M59.5244442,21.0699259 L59.5244442,15 L14,15 L14,21.0699259 L15.5174815,21.0699259 L15.5174815,51.4195554 L14.7587407,51.4195554 C14.3391571,51.4195554 14,51.7587125 14,52.1782961 C14,52.5978797 14.3391571,52.9370368 14.7587407,52.9370368 L15.5174815,52.9370368 L36.0034814,52.9370368 L36.0034814,54.4545183 C36.0034814,54.4901791 36.0194149,54.5212875 36.0239674,54.5561896 C34.7075522,54.8877593 33.7272591,56.0713948 33.7272591,57.4894812 C33.7272591,59.1632633 35.08844,60.5244442 36.7622221,60.5244442 C38.4360042,60.5244442 39.797185,59.1632633 39.797185,57.4894812 C39.797185,56.0713948 38.816892,54.8877593 37.5004768,54.5561896 C37.5050293,54.5212875 37.5209628,54.4901791 37.5209628,54.4545183 L37.5209628,52.9370368 L58.0069627,52.9370368 L58.7657035,52.9370368 C59.1852871,52.9370368 59.5244442,52.5978797 59.5244442,52.1782961 C59.5244442,51.7587125 59.1852871,51.4195554 58.7657035,51.4195554 L58.0069627,51.4195554 L58.0069627,21.0699259 L59.5244442,21.0699259 Z M38.2797036,57.4894812 C38.2797036,58.3263723 37.5991131,59.0069627 36.7622221,59.0069627 C35.9253311,59.0069627 35.2447406,58.3263723 35.2447406,57.4894812 C35.2447406,56.6525902 35.9253311,55.9719998 36.7622221,55.9719998 C37.5991131,55.9719998 38.2797036,56.6525902 38.2797036,57.4894812 Z M15.5174815,16.5174815 L58.0069627,16.5174815 L58.0069627,19.5524444 L15.5174815,19.5524444 L15.5174815,16.5174815 Z M56.4894812,51.4195554 L17.0349629,51.4195554 L17.0349629,21.0699259 L56.4894812,21.0699259 L56.4894812,51.4195554 Z" id="Shape" fill="#031D44" fill-rule="nonzero"></path>
                <path d="M32.9685184,45.3496295 L32.9685184,43.832148 L32.9685184,35.4859999 L26.8985925,35.4859999 L26.8985925,43.832148 L26.8985925,45.3496295 L26.8985925,49.1433331 L32.9685184,49.1433331 L32.9685184,45.3496295 Z M28.416074,37.0034814 L31.4510369,37.0034814 L31.4510369,43.832148 L28.416074,43.832148 L28.416074,37.0034814 Z M31.4510369,47.6258517 L28.416074,47.6258517 L28.416074,45.3496295 L31.4510369,45.3496295 L31.4510369,47.6258517 Z" id="Shape" fill="#031D44" fill-rule="nonzero"></path>
                <path d="M39.797185,45.3496295 L39.797185,43.832148 L39.797185,30.9335555 L33.7272591,30.9335555 L33.7272591,43.832148 L33.7272591,45.3496295 L33.7272591,49.1433331 L39.797185,49.1433331 L39.797185,45.3496295 Z M35.2447406,32.4510369 L38.2797036,32.4510369 L38.2797036,43.832148 L35.2447406,43.832148 L35.2447406,32.4510369 Z M38.2797036,47.6258517 L35.2447406,47.6258517 L35.2447406,45.3496295 L38.2797036,45.3496295 L38.2797036,47.6258517 Z" id="Shape" fill="#031D44" fill-rule="nonzero"></path>
                <path d="M46.6258517,45.3496295 L46.6258517,43.832148 L46.6258517,36.2447406 L40.5559258,36.2447406 L40.5559258,43.832148 L40.5559258,45.3496295 L40.5559258,49.1433331 L46.6258517,49.1433331 L46.6258517,45.3496295 Z M42.0734073,37.7622221 L45.1083702,37.7622221 L45.1083702,43.832148 L42.0734073,43.832148 L42.0734073,37.7622221 Z M45.1083702,47.6258517 L42.0734073,47.6258517 L42.0734073,45.3496295 L45.1083702,45.3496295 L45.1083702,47.6258517 Z" id="Shape" fill="#031D44" fill-rule="nonzero"></path>
                <path d="M53.4545183,45.3496295 L53.4545183,43.832148 L53.4545183,26.381111 L47.3845924,26.381111 L47.3845924,43.832148 L47.3845924,45.3496295 L47.3845924,49.1433331 L53.4545183,49.1433331 L53.4545183,45.3496295 Z M48.9020739,27.8985925 L51.9370368,27.8985925 L51.9370368,43.832148 L48.9020739,43.832148 L48.9020739,27.8985925 Z M51.9370368,47.6258517 L48.9020739,47.6258517 L48.9020739,45.3496295 L51.9370368,45.3496295 L51.9370368,47.6258517 Z" id="Shape" fill="#031D44" fill-rule="nonzero"></path>
                <path d="M20.0699259,43.832148 L20.0699259,45.3496295 L20.0699259,49.1433331 L26.1398518,49.1433331 L26.1398518,45.3496295 L26.1398518,43.832148 L26.1398518,40.0384443 L20.0699259,40.0384443 L20.0699259,43.832148 Z M24.6223703,47.6258517 L21.5874074,47.6258517 L21.5874074,45.3496295 L24.6223703,45.3496295 L24.6223703,47.6258517 Z M21.5874074,41.5559258 L24.6223703,41.5559258 L24.6223703,43.832148 L21.5874074,43.832148 L21.5874074,41.5559258 Z" id="Shape" fill="#031D44" fill-rule="nonzero"></path>
                <path d="M20.0699259,33.9685184 C20.2641635,33.9685184 20.4584011,33.8941618 20.6063556,33.7462074 L24.6223703,29.7301927 L24.6223703,31.6922962 C24.6223703,32.1118798 24.9615274,32.4510369 25.381111,32.4510369 C25.8006947,32.4510369 26.1398518,32.1118798 26.1398518,31.6922962 L26.1398518,27.8985925 C26.1398518,27.7999562 26.1201245,27.7013199 26.0814287,27.6087536 C26.0047959,27.4228621 25.8568415,27.2749076 25.67095,27.1982748 C25.5783836,27.159579 25.4797473,27.1398518 25.381111,27.1398518 L21.5874074,27.1398518 C21.1678237,27.1398518 20.8286666,27.4790089 20.8286666,27.8985925 C20.8286666,28.3181761 21.1678237,28.6573333 21.5874074,28.6573333 L23.5495109,28.6573333 L19.5334962,32.673348 C19.2368286,32.9700156 19.2368286,33.4495397 19.5334962,33.7462074 C19.6814506,33.8941618 19.8756883,33.9685184 20.0699259,33.9685184 Z" id="Shape" fill="#031D44" fill-rule="nonzero"></path>
                <circle id="Oval" stroke="#031D44" stroke-width="2" cx="36" cy="36" r="36"></circle>
            </g>
        </g>
    </g>
</svg>