<?xml version="1.0" encoding="UTF-8"?>
<svg width="74px" height="74px" viewBox="0 0 74 74" version="1.1" xmlns="http://www.w3.org/2000/svg" xmlns:xlink="http://www.w3.org/1999/xlink">
    <!-- Generator: Sketch Beta 45 (43471) - http://www.bohemiancoding.com/sketch -->
    <title>notebook</title>
    <desc>Created with Sketch Beta.</desc>
    <defs></defs>
    <g id="Page-1" stroke="none" stroke-width="1" fill="none" fill-rule="evenodd">
        <g id="Desktop" transform="translate(-536.000000, -776.000000)">
            <g id="notebook" transform="translate(536.218077, 777.000000)">
                <path d="M46.139444,15.0029884 L44.6422785,15.0029884 L39.4126582,15.0029884 L17,15.0029884 L17,27.7079772 L17,42.6497494 L17,55.3427848 L19.9883544,55.3427848 L19.9883544,59.7267007 L22.9767089,57.7349625 L25.9650633,59.7267007 L25.9650633,55.3427848 L39.4126582,55.3427848 L44.6422785,55.3427848 L46.139444,55.3427848 C47.7852802,55.3427848 49.1248101,54.0032549 49.1248101,52.3574187 L49.1248101,42.6497494 L49.1248101,27.7079772 L49.1248101,17.9883544 C49.1248101,16.3425182 47.7852802,15.0029884 46.139444,15.0029884 Z M18.4941772,16.4971656 L39.4126582,16.4971656 L39.4126582,27.7079772 L18.4941772,27.7079772 L18.4941772,16.4971656 Z M39.4126582,41.1555721 L18.4941772,41.1555721 L18.4941772,29.2021544 L39.4126582,29.2021544 L39.4126582,41.1555721 Z M24.4708861,56.9355777 L22.9767089,55.9389615 L21.4825316,56.9355777 L21.4825316,55.3427848 L24.4708861,55.3427848 L24.4708861,56.9355777 Z M25.9650633,53.8486076 L19.9883544,53.8486076 L18.4941772,53.8486076 L18.4941772,42.6497494 L39.4126582,42.6497494 L39.4126582,53.8486076 L25.9650633,53.8486076 Z M40.9068354,53.8486076 L40.9068354,42.6497494 L40.9068354,27.7079772 L40.9068354,16.4971656 L43.1481013,16.4971656 L43.1481013,27.7079772 L43.1481013,42.6497494 L43.1481013,53.8486076 L40.9068354,53.8486076 Z M44.6422785,29.2021544 L47.6306329,29.2021544 L47.6306329,41.1555721 L44.6422785,41.1555721 L44.6422785,29.2021544 Z M47.6306329,52.3574187 C47.6306329,53.1792162 46.9612415,53.8486076 46.139444,53.8486076 L44.6422785,53.8486076 L44.6422785,42.6497494 L47.6306329,42.6497494 L47.6306329,52.3574187 Z M44.6422785,27.7079772 L44.6422785,16.4971656 L46.139444,16.4971656 C46.9612415,16.4971656 47.6306329,17.1658099 47.6306329,17.9883544 L47.6306329,27.7079772 L44.6422785,27.7079772 L44.6422785,27.7079772 Z" id="Shape" fill="#031D44" fill-rule="nonzero"></path>
                <path d="M58.1010797,15 L55.0910597,15 C53.8606048,15 52.8602532,16.0003516 52.8602532,17.2300595 L52.8602532,20.2296203 L52.8602532,24.7121519 L52.8602532,52.5531559 L55.8486076,57.7827762 L55.8486076,59.0782278 C55.8486076,59.4913678 56.1825562,59.8253164 56.5956962,59.8253164 C57.0088362,59.8253164 57.3427848,59.4913678 57.3427848,59.0782278 L57.3427848,57.7827762 L60.3311392,52.5531559 L60.3311392,24.7121519 L60.3311392,20.2296203 L60.3311392,17.2300595 C60.3311392,16.0003516 59.3307876,15 58.1010797,15 Z M54.3544304,21.7237975 L58.836962,21.7237975 L58.836962,23.2179747 L54.3544304,23.2179747 L54.3544304,21.7237975 Z M56.5956962,56.07792 L54.8945754,53.101519 L58.2968169,53.101519 L56.5956962,56.07792 Z M58.836962,51.6073418 L54.3544304,51.6073418 L54.3544304,24.7121519 L58.836962,24.7121519 L58.836962,51.6073418 Z M54.3544304,20.2296203 L54.3544304,17.2300595 C54.3544304,16.8243904 54.6846435,16.4941772 55.0903126,16.4941772 L58.1003326,16.4941772 C58.5067488,16.4941772 58.836962,16.8243904 58.836962,17.2300595 L58.836962,20.2296203 L54.3544304,20.2296203 Z" id="Shape" fill="#031D44" fill-rule="nonzero"></path>
                <circle id="Oval" stroke="#031D44" stroke-width="2" cx="36.7819226" cy="36" r="36"></circle>
            </g>
        </g>
    </g>
</svg>