<?xml version="1.0" encoding="UTF-8"?>
<svg width="80px" height="64px" viewBox="0 0 80 64" version="1.1" xmlns="http://www.w3.org/2000/svg" xmlns:xlink="http://www.w3.org/1999/xlink">
    <!-- Generator: Sketch Beta 45 (43471) - http://www.bohemiancoding.com/sketch -->
    <title>pipe</title>
    <desc>Created with Sketch Beta.</desc>
    <defs></defs>
    <g id="Page-1" stroke="none" stroke-width="1" fill="none" fill-rule="evenodd">
        <g id="Desktop" transform="translate(-944.000000, -1378.000000)" fill-rule="nonzero" fill="#ADD9F4">
            <g id="pipe" transform="translate(1025.000000, 1356.500000) scale(-1, 1) rotate(-270.000000) translate(-1025.000000, -1356.500000) translate(939.500000, 1275.500000)">
                <path d="M164.573285,0.199454086 L113.498841,0.199454086 C110.377553,0.199454086 107.823865,2.7531425 107.823865,5.87442992 L107.823865,17.2243816 C107.823865,20.345669 110.377553,22.8993574 113.498841,22.8993574 L116.336159,22.8993574 L116.336159,68.298826 C116.336159,90.1474999 98.4600025,108.023319 76.6116667,108.023319 L22.6999033,108.023319 L22.6999033,105.186 C22.6999033,102.064713 20.1462149,99.5110241 17.0249275,99.5110241 L5.67497583,99.5110241 C2.55368842,99.5110241 0,102.064713 0,105.185662 L0,156.260106 C0,159.381394 2.55368842,161.935082 5.67497583,161.935082 L17.0249275,161.935082 C20.1462149,161.935082 22.6999033,159.381394 22.6999033,156.260106 L22.6999033,153.422787 L76.6116667,153.422787 C123.713594,153.422787 161.735628,115.117123 161.735628,68.298826 L161.735628,22.8993574 L164.572947,22.8993574 C167.694234,22.8993574 170.247923,20.345669 170.247923,17.2243816 L170.247923,5.87442992 C170.248261,2.7531425 167.694234,0.199454086 164.573285,0.199454086 Z M17.0249275,156.260106 L5.67497583,156.260106 L5.67497583,105.185662 L17.0249275,105.185662 L17.0249275,110.860638 L17.0249275,150.585131 L17.0249275,156.260106 Z M156.060652,68.298826 C156.060652,111.995836 120.308676,147.747812 76.6116667,147.747812 L22.6999033,147.747812 L22.6999033,142.072836 L53.9121014,142.072836 C55.6145603,142.072836 56.7494203,140.937976 56.7494203,139.235517 C56.7494203,137.533058 55.6145603,136.398198 53.9121014,136.398198 L22.6999033,136.398198 L22.6999033,113.698295 L76.6116667,113.698295 C101.58129,113.698295 122.011135,93.2684493 122.011135,68.298826 L122.011135,22.8993574 L156.060652,22.8993574 L156.060652,68.298826 Z M164.573285,17.2243816 L158.898309,17.2243816 L119.173816,17.2243816 L113.498841,17.2243816 L113.498841,5.87442992 L164.573285,5.87442992 L164.573285,17.2243816 Z" id="Shape"></path>
                <path d="M147.548358,42.7616038 C149.250816,42.7616038 150.385676,41.6267439 150.385676,39.9242849 L150.385676,31.4119902 C150.385676,29.7095313 149.250816,28.5746713 147.548358,28.5746713 C145.845899,28.5746713 144.711039,29.7095313 144.711039,31.4119902 L144.711039,39.9242849 C144.711039,41.6264058 145.845899,42.7616038 147.548358,42.7616038 Z" id="Shape"></path>
                <path d="M147.548358,54.1115555 C149.250816,54.1115555 150.385676,52.9766955 150.385676,51.2742366 C150.385676,49.5717777 149.250816,48.4369177 147.548358,48.4369177 C145.845899,48.4369177 144.711039,49.5717777 144.711039,51.2742366 C144.711039,52.9766955 145.845899,54.1115555 147.548358,54.1115555 Z" id="Shape"></path>
            </g>
        </g>
    </g>
</svg>