<?xml version="1.0" encoding="UTF-8"?>
<svg width="74px" height="74px" viewBox="0 0 74 74" version="1.1" xmlns="http://www.w3.org/2000/svg" xmlns:xlink="http://www.w3.org/1999/xlink">
    <!-- Generator: Sketch Beta 45 (43471) - http://www.bohemiancoding.com/sketch -->
    <title>Group 3</title>
    <desc>Created with Sketch Beta.</desc>
    <defs></defs>
    <g id="Page-1" stroke="none" stroke-width="1" fill="none" fill-rule="evenodd">
        <g id="Desktop" transform="translate(-89.000000, -776.000000)">
            <g id="Group" transform="translate(90.000000, 774.000000)">
                <g id="Group-3" transform="translate(0.000000, 3.000000)">
                    <g id="send" transform="translate(10.000000, 15.000000)" fill-rule="nonzero" fill="#031D44">
                        <path d="M48.902651,0.287830892 C48.6826748,0.073517327 48.3577014,0.0071981717 48.071694,0.118529894 L0.500320921,18.5937413 C0.217576737,18.7035374 0.0236100032,18.9664146 0.00201548808,19.2688338 C-0.019579027,19.571253 0.135037701,19.8589879 0.399162615,20.0078461 L10.2576826,25.5624353 L13.6793095,42.2870513 C13.7006161,42.4052933 13.7486999,42.5153773 13.8177064,42.6099133 C13.9565831,42.7847809 14.1275157,42.8900661 14.3267611,42.92193 C14.6017312,42.9319115 14.7434872,42.8892023 14.8643205,42.8140534 C14.9052061,42.7887159 14.9440763,42.7594433 14.9801631,42.7262357 C14.9876492,42.7193255 17.4715303,40.2295259 22.4318064,35.2568369 C22.7375848,34.9501948 22.7370089,34.4536169 22.4303668,34.1478386 C22.1234368,33.8418683 21.6272428,33.8426361 21.3213685,34.1492782 L15.4919051,39.9936178 L16.7514892,29.2065337 L34.5544873,38.9781957 C34.7337698,39.0760909 34.9330152,39.0971095 35.1155608,39.0530567 C35.3523327,38.9786756 35.5105005,38.8569785 35.611083,38.6823029 C35.6454422,38.6181912 35.6617581,38.5801848 35.6747148,38.5416026 L49.0935465,1.11408503 C49.1971042,0.825006452 49.1226271,0.501952506 48.902651,0.287830892 Z M2.61360816,19.4554104 L41.4964041,4.35450998 L10.9261528,24.1389248 L2.61360816,19.4554104 Z M15.6171533,27.34691 C15.5438279,27.4057431 15.4800042,27.4787805 15.4300968,27.5644868 C15.3638736,27.6905027 15.3362327,27.7877261 15.327115,27.8850453 L14.2394233,37.2001513 L11.8297633,25.4222149 L38.233137,8.33452307 L15.6171533,27.34691 Z M34.5039082,37.1612812 L17.4889659,27.8221813 L46.6372424,3.31826118 L34.5039082,37.1612812 Z" id="Shape"></path>
                    </g>
                    <circle id="Oval" stroke="#031D44" stroke-width="2" cx="36" cy="36" r="36"></circle>
                </g>
            </g>
        </g>
    </g>
</svg>