<?xml version="1.0" encoding="UTF-8"?>
<svg width="75px" height="74px" viewBox="0 0 75 74" version="1.1" xmlns="http://www.w3.org/2000/svg" xmlns:xlink="http://www.w3.org/1999/xlink">
    <!-- Generator: Sketch Beta 45 (43471) - http://www.bohemiancoding.com/sketch -->
    <title>quality-badge</title>
    <desc>Created with Sketch Beta.</desc>
    <defs></defs>
    <g id="Page-1" stroke="none" stroke-width="1" fill="none" fill-rule="evenodd">
        <g id="Desktop" transform="translate(-16.000000, -933.000000)">
            <g id="quality-badge" transform="translate(17.000000, 934.000000)">
                <path d="M54.8559913,27.8145338 L52.1779013,24.3157442 L52.7499378,19.9462994 C52.8155046,19.4461856 52.5369573,18.9642476 52.0708535,18.7713385 L47.9996928,17.0857821 L46.3142479,13.0146214 C46.1214504,12.5485176 45.6399584,12.2703049 45.1392871,12.3355371 L40.7697307,12.9075737 L37.2710526,10.2295952 C36.8709616,9.92350544 36.3156512,9.92350544 35.9155602,10.2295952 L32.4167706,12.9076852 L28.0473257,12.3356486 C27.5473234,12.2703049 27.0652739,12.5486291 26.8723649,13.014733 L25.1868085,17.0858936 L21.1156478,18.7713385 C20.6495439,18.9643591 20.3709967,19.4461856 20.4365635,19.9464109 L21.0086,24.3159672 L18.33051,27.8145338 C18.0243088,28.2145134 18.0243088,28.7700467 18.33051,29.1700263 L21.0086,32.6688159 L20.4365635,37.0382607 C20.3709967,37.5383746 20.6495439,38.0203126 21.1156478,38.2132216 L25.1868085,39.8986665 L26.8722534,43.9699387 C27.0215627,44.3308904 27.3441556,44.5786614 27.7145855,44.6418865 L27.7145855,59.4522806 C27.7145855,59.8589506 27.9359291,60.2333948 28.2924205,60.4294261 C28.6485774,60.6253458 29.0835705,60.6117418 29.4270154,60.3939665 L36.5934179,55.8484504 L43.7598204,60.3939665 C43.9418016,60.5093774 44.1492067,60.5674731 44.3570578,60.5674731 C44.5417152,60.5674731 44.7267071,60.5216433 44.8943038,60.4295376 C45.2506837,60.2335063 45.4721387,59.8590622 45.4721387,59.4523921 L45.4721387,44.641775 C45.8418996,44.5782153 46.1650501,44.3306674 46.3143594,43.9700502 L47.9999158,39.8988895 L52.0710765,38.2134446 C52.5371804,38.0204241 52.8157276,37.5385976 52.7501608,37.0383722 L52.1781243,32.6688159 L54.8562143,29.1700263 C55.1621925,28.7701582 55.1621925,28.2145134 54.8559913,27.8145338 Z M37.1905438,53.5865086 C36.8259123,53.3552408 36.360589,53.3552408 35.9959575,53.5865086 L29.944636,57.4247289 L29.944636,44.4006944 L32.4166591,44.0770979 L35.9154487,46.7551879 C36.1154942,46.9082886 36.3543445,46.9847831 36.5931949,46.9847831 C36.8320452,46.9847831 37.0708956,46.9081771 37.2709411,46.7551879 L40.7697307,44.0770979 L43.2417538,44.400806 L43.2417538,57.4247289 L37.1905438,53.5865086 Z M50.1271558,31.6791815 C49.9478508,31.91346 49.8686801,32.2091795 49.9069273,32.5016652 L50.4276702,36.4799397 L46.7196913,38.0150717 C46.446385,38.1282524 46.2291672,38.3453587 46.1159865,38.6187765 L44.580743,42.3267553 L40.6024686,41.805901 C40.3100943,41.7677652 40.0142633,41.8468245 39.7799848,42.0261295 L36.5931949,44.4653691 L33.4064049,42.0261295 C33.2108197,41.8763741 32.9723039,41.7965343 32.7286587,41.7965343 C32.6804872,41.7965343 32.6322042,41.7996565 32.5839212,41.805901 L28.6055353,42.3267553 L27.0704033,38.618665 C26.9572225,38.3452472 26.7400048,38.1281409 26.4666984,38.0148487 L22.7587196,36.4797167 L23.2794624,32.5015537 C23.3178212,32.209068 23.2386505,31.9133485 23.0592339,31.67907 L20.6199943,28.4921685 L23.0592339,25.3053786 C23.238539,25.0711001 23.3177097,24.7753806 23.2794624,24.4828949 L22.7587196,20.5046204 L26.4668099,18.9697115 C26.7401163,18.8565307 26.9573341,18.6394245 27.0705148,18.3660066 L28.6057583,14.6580278 L32.5840327,15.1788821 C32.87663,15.2172409 33.1722379,15.1379587 33.4065164,14.9586536 L36.5933064,12.519414 L39.7800963,14.9586536 C40.0143749,15.1379587 40.3103173,15.2172409 40.6025801,15.1788821 L44.580966,14.6580278 L46.116098,18.3660066 C46.2292787,18.6394245 46.446385,18.8565307 46.7198029,18.9697115 L50.4277817,20.504955 L49.9070388,24.4831179 C49.8686801,24.7756036 49.9478508,25.0713231 50.1272673,25.3056016 L52.566507,28.4923916 L50.1271558,31.6791815 Z" id="Shape" fill="#031D44" fill-rule="nonzero"></path>
                <path d="M29.7820572,21.2982236 C30.0309433,21.2982236 30.281502,21.2152615 30.488907,21.0449887 C32.203121,19.6379795 34.37095,18.8631097 36.5933064,18.8631097 C37.2090541,18.8631097 37.7083874,18.363888 37.7083874,17.7480287 C37.7083874,17.1321695 37.2090541,16.6329477 36.5933064,16.6329477 C33.8564516,16.6329477 31.1860557,17.5876801 29.0738693,19.3210735 C28.5978412,19.7117978 28.5287062,20.4144104 28.9194306,20.8904384 C29.1398821,21.159173 29.4596873,21.2982236 29.7820572,21.2982236 Z" id="Shape" fill="#031D44" fill-rule="nonzero"></path>
                <path d="M40.5695737,17.3163809 C39.9892855,17.1100909 39.3516822,17.4130584 39.1451692,17.9931235 C38.9387677,18.5733002 39.2417352,19.211015 39.8219119,19.4174165 C43.6503194,20.7794879 46.2224767,24.4264718 46.2224767,28.4922801 C46.2224767,33.8018497 41.902876,38.1214504 36.5933064,38.1214504 C31.2837368,38.1214504 26.964136,33.8018497 26.964136,28.4922801 C26.964136,26.6035559 27.5104142,24.7753806 28.5439828,23.2052351 C28.8826329,22.6908482 28.7401255,21.9993865 28.2257387,21.6607364 C27.7114633,21.3221978 27.0198901,21.4644821 26.68124,21.9789805 C25.40726,23.9142036 24.7339741,26.1664441 24.7339741,28.4922801 C24.7339741,35.031561 30.0540255,40.3516124 36.5933064,40.3516124 C43.1325873,40.3516124 48.4526387,35.031561 48.4526387,28.4922801 C48.4526387,23.4853434 45.2846936,18.9940202 40.5695737,17.3163809 Z" id="Shape" fill="#031D44" fill-rule="nonzero"></path>
                <circle id="Oval" stroke="#031D44" stroke-width="2" cx="36.1244744" cy="36" r="36"></circle>
            </g>
        </g>
    </g>
</svg>